<?xml version="1.0" encoding="UTF-8" standalone="no"?>
<svg
   width="1024"
   height="1024"
   version="1.1"
   id="svg1"
   sodipodi:docname="logo.svg"
   inkscape:version="1.3.2 (091e20e, 2023-11-25)"
   inkscape:export-filename="logo.png"
   inkscape:export-xdpi="96"
   inkscape:export-ydpi="96"
   xmlns:inkscape="http://www.inkscape.org/namespaces/inkscape"
   xmlns:sodipodi="http://sodipodi.sourceforge.net/DTD/sodipodi-0.dtd"
   xmlns:xlink="http://www.w3.org/1999/xlink"
   xmlns="http://www.w3.org/2000/svg"
   xmlns:svg="http://www.w3.org/2000/svg">
  <sodipodi:namedview
     id="namedview1"
     pagecolor="#ffffff"
     bordercolor="#999999"
     borderopacity="1"
     inkscape:showpageshadow="2"
     inkscape:pageopacity="0"
     inkscape:pagecheckerboard="0"
     inkscape:deskcolor="#d1d1d1"
     inkscape:zoom="0.42759104"
     inkscape:cx="463.05928"
     inkscape:cy="565.96134"
     inkscape:window-width="1512"
     inkscape:window-height="949"
     inkscape:window-x="0"
     inkscape:window-y="33"
     inkscape:window-maximized="0"
     inkscape:current-layer="svg1" />
  <defs
     id="defs1">
    <linearGradient
       x1="0.14647"
       y1="0.14645"
       x2="0.85355002"
       y2="0.85354"
       spreadMethod="pad"
       id="linearGradient56-3">
      <stop
         stop-color="#1a2243"
         offset="0"
         id="stop20"
         style="stop-color:#2c2a29;stop-opacity:1;" />
      <stop
         stop-color="#46c1b9"
         offset="0.55390835"
         id="stop21"
         style="stop-color:#a56d68;stop-opacity:1;" />
      <stop
         stop-color="#c5115b"
         offset="1"
         id="stop22"
         style="stop-color:#745106;stop-opacity:1;" />
    </linearGradient>
    <linearGradient
       x1="0.14647"
       y1="0.14645"
       x2="0.85355002"
       y2="0.85354"
       spreadMethod="pad"
       id="linearGradient56-2">
      <stop
         stop-color="#1a2243"
         offset="0"
         id="stop17"
         style="stop-color:#2c2a29;stop-opacity:1;" />
      <stop
         stop-color="#46c1b9"
         offset="0.55390835"
         id="stop18"
         style="stop-color:#a56d68;stop-opacity:1;" />
      <stop
         stop-color="#c5115b"
         offset="1"
         id="stop19"
         style="stop-color:#745106;stop-opacity:1;" />
    </linearGradient>
    <linearGradient
       x1="0.14647"
       y1="0.14645"
       x2="0.85355002"
       y2="0.85354"
       spreadMethod="pad"
       id="linearGradient56-1">
      <stop
         stop-color="#1a2243"
         offset="0"
         id="stop14"
         style="stop-color:#2c2a29;stop-opacity:1;" />
      <stop
         stop-color="#46c1b9"
         offset="0.55390835"
         id="stop15"
         style="stop-color:#a56d68;stop-opacity:1;" />
      <stop
         stop-color="#c5115b"
         offset="1"
         id="stop16"
         style="stop-color:#745106;stop-opacity:1;" />
    </linearGradient>
    <linearGradient
       x1="0.14647"
       y1="0.14645"
       x2="0.85355002"
       y2="0.85354"
       spreadMethod="pad"
       id="linearGradient56">
      <stop
         stop-color="#1a2243"
         offset="0"
         id="stop11"
         style="stop-color:#2c2a29;stop-opacity:1;" />
      <stop
         stop-color="#46c1b9"
         offset="0.55390835"
         id="stop12"
         style="stop-color:#a56d68;stop-opacity:1;" />
      <stop
         stop-color="#c5115b"
         offset="1"
         id="stop13"
         style="stop-color:#745106;stop-opacity:1;" />
    </linearGradient>
    <linearGradient
       x1="0.14647"
       y1="0.14645"
       x2="0.85355002"
       y2="0.85354"
       spreadMethod="pad"
       id="linearGradient56-4">
      <stop
         stop-color="#1a2243"
         offset="0"
         id="stop50"
         style="stop-color:#2c2a29;stop-opacity:1;" />
      <stop
         stop-color="#46c1b9"
         offset="0.55390835"
         id="stop52"
         style="stop-color:#a56d68;stop-opacity:1;" />
      <stop
         stop-color="#c5115b"
         offset="1"
         id="stop54"
         style="stop-color:#745106;stop-opacity:1;" />
    </linearGradient>
    <linearGradient
       x1="-9.9999997e-06"
       y1="0.5"
       x2="1.00001"
       y2="0.5"
       spreadMethod="pad"
       id="linearGradient100">
      <stop
         stop-color="#1a2243"
         offset="0"
         id="stop96"
         style="stop-color:#370d7c;stop-opacity:1;" />
      <stop
         stop-color="#1a2243"
         offset="0.5"
         id="stop23"
         style="stop-color:#265763;stop-opacity:1;" />
      <stop
         stop-color="#46c1b9"
         offset="1"
         id="stop98"
         style="stop-color:#483f4a;stop-opacity:1;" />
    </linearGradient>
    <linearGradient
       x1="4.9999999e-05"
       y1="0.50018001"
       x2="1.0001301"
       y2="0.50018001"
       spreadMethod="pad"
       id="linearGradient164">
      <stop
         stop-color="#46c1b9"
         offset="0"
         id="stop160"
         style="stop-color:#070707;stop-opacity:1;" />
      <stop
         stop-color="#c5115b"
         offset="1"
         id="stop162"
         style="stop-color:#723248;stop-opacity:1;" />
    </linearGradient>
    <radialGradient
       inkscape:collect="always"
       xlink:href="#linearGradient100"
       id="radialGradient10"
       cx="124.39527"
       cy="124.6094"
       fx="124.39527"
       fy="124.6094"
       r="116.42322"
       gradientTransform="matrix(1,0,0,0.99998264,0,0.00216262)"
       gradientUnits="userSpaceOnUse" />
    <radialGradient
       inkscape:collect="always"
       xlink:href="#linearGradient100"
       id="radialGradient1"
       gradientUnits="userSpaceOnUse"
       gradientTransform="matrix(1,0,0,0.99998264,0,0.00216262)"
       cx="124.39527"
       cy="124.6094"
       fx="124.39527"
       fy="124.6094"
       r="116.42322" />
    <radialGradient
       inkscape:collect="always"
       xlink:href="#linearGradient100"
       id="radialGradient2"
       gradientUnits="userSpaceOnUse"
       gradientTransform="matrix(1,0,0,0.99998264,0,0.00216262)"
       cx="124.39527"
       cy="124.6094"
       fx="124.39527"
       fy="124.6094"
       r="116.42322" />
    <radialGradient
       inkscape:collect="always"
       xlink:href="#linearGradient100"
       id="radialGradient3"
       gradientUnits="userSpaceOnUse"
       gradientTransform="matrix(1,0,0,0.99998264,0,0.00216262)"
       cx="124.39527"
       cy="124.6094"
       fx="124.39527"
       fy="124.6094"
       r="116.42322" />
    <radialGradient
       inkscape:collect="always"
       xlink:href="#linearGradient100"
       id="radialGradient4"
       gradientUnits="userSpaceOnUse"
       gradientTransform="matrix(1,0,0,0.99998264,0,0.00216262)"
       cx="124.39527"
       cy="124.6094"
       fx="124.39527"
       fy="124.6094"
       r="116.42322" />
  </defs>
  <g
     id="g1"
     style="fill:url(#radialGradient10);fill-opacity:1"
     transform="matrix(4.3535222,0,0,4.3535222,-28.99801,-30.301632)">
    <title
       id="title1">Layer 1</title>
    <g
       id="g10"
       transform="matrix(1.3333333,0,0,-1.3333333,0,249)"
       style="fill:url(#radialGradient4);fill-opacity:1">
      <g
         id="g4682"
         transform="matrix(1.0102733,0,0,1.0102733,5.9790415,5.979062)"
         style="fill:url(#radialGradient3);fill-opacity:1">
        <g
           id="g28"
           style="fill:url(#radialGradient2);fill-opacity:1">
          <path
             fill="url(#linearGradient56)"
             id="path58"
             d="m 86.43,3.11601 v 3.117 c 44.293,0 80.199,35.906 80.199,80.199 h 3.117 c 0,-46.016 -37.301,-83.316 -83.316,-83.316 z m -58.379,83.316 h -3.11 c 0,33.961 27.528,61.488 61.489,61.488 v -3.117 c -32.239,0 -58.375,-26.133 -58.375,-58.371 h 6.226 c 0,-28.801 23.348,-52.148 52.149,-52.148 v -3.118 c 30.523,0 55.261,24.743 55.261,55.266 h 3.118 c 0,-32.242 -26.137,-58.379 -58.379,-58.379 -32.239,0 -58.379,26.137 -58.379,58.379 z m 58.379,-48.941 c 27.031,0 48.941,21.91 48.941,48.941 h -3.031 c 0,-25.355 -20.555,-45.914 -45.91,-45.914 v 3.117 c 23.636,0 42.797,19.16 42.797,42.797 0,23.602 -19.196,42.805 -42.797,42.805 v -3.125 c -21.914,0 -39.68,-17.766 -39.68,-39.68 h -3.125 c 0,23.641 19.164,42.805 42.805,42.805 v 6.152 c -27.039,0 -48.957,-21.918 -48.957,-48.957 h -3.184 c 0,28.797 23.348,52.141 52.141,52.141 v -3.184 c 27.086,0 48.941,-21.875 48.941,-48.957 h 3.203 c 0,-28.801 -23.344,-52.144 -52.144,-52.144 z m 36.562,48.941 h 3.117 c 0,-21.914 -17.765,-39.68 -39.679,-39.68 v 3.118 c 20.195,0 36.562,16.371 36.562,36.562 z M 86.43,52.92801 v 3.156 c 16.761,0 30.347,13.586 30.347,30.348 h 3.157 c 0,-18.504 -15,-33.504 -33.504,-33.504 z m -30.34,33.504 h -3.121 c 0,18.48 14.98,33.461 33.461,33.461 v -3.121 c -16.754,0 -30.34,-13.586 -30.34,-30.34 z m 6.238,0 c 0,13.309 10.793,24.102 24.102,24.102 v 3.004 c 15.031,0 27.144,-12.075 27.144,-27.106 0,-14.992 -12.152,-27.144 -27.144,-27.144 v 3.039 c -13.313,0 -24.106,10.793 -24.106,24.105 z m -46.738,0 c 0,39.125 31.719,70.84 70.84,70.84 39.187,0 70.843,-31.652 70.843,-70.84 0,-39.129 -31.714,-70.848 -70.843,-70.848 v 3.118 c 37.406,0 67.73,30.324 67.73,67.73 h -3.117 c 0,-35.684 -28.926,-64.613 -64.613,-64.613 v 3.117 c 33.965,0 61.496,27.531 61.496,61.496 h 3.117 c 0,35.742 -28.867,64.641 -64.613,64.641 v 3.082 c -37.403,0 -67.723,-30.321 -67.723,-67.723 z m -9.348,0 c 0,44.285 35.903,80.188 80.188,80.188 v -3.118 c -42.567,0 -77.075,-34.504 -77.075,-77.07 z m 157.266,0 c 0,-42.57 -34.508,-77.078 -77.078,-77.078 v 3.113 c 40.847,0 73.961,33.117 73.961,73.965 z m 9.344,0 c 0,47.73 -38.692,86.422 -86.422,86.422 -47.731,0 -86.422,-38.692 -86.422,-86.422 H 0 c 0,-47.734 38.695,-86.434 86.43,-86.434 47.734,0 86.429,38.7 86.429,86.434 h -0.007"
             style="fill:url(#radialGradient1);fill-opacity:1" />
        </g>
      </g>
    </g>
  </g>
</svg>
